<svg version="1.1" id="Layer_1" xmlns="http://www.w3.org/2000/svg" xmlns:xlink="http://www.w3.org/1999/xlink" x="0px" y="0px"
	 width="100%" viewBox="0 0 496 496" enable-background="new 0 0 496 496" xml:space="preserve">
<path fill="#000000" opacity="1.000000" stroke="none" 
	d="
M373.006714,206.920105 
	C372.736267,206.460007 372.639374,206.321152 372.576324,206.168350 
	C368.135315,195.408966 361.104614,188.840332 348.477661,188.996109 
	C334.389282,189.169891 323.146759,193.919998 315.685669,206.148712 
	C309.473633,216.330215 307.046021,227.705063 306.436432,239.425064 
	C306.205841,243.857986 305.010223,245.638565 300.339325,245.427841 
	C292.697693,245.083084 285.027863,245.239136 277.372925,245.365051 
	C273.592682,245.427231 272.467224,244.131104 273.137726,240.260483 
	C278.717407,208.050766 301.294495,187.610275 333.824982,184.495529 
	C349.109406,183.032089 363.618835,184.621841 377.738861,190.590042 
	C381.723175,192.274094 383.667725,194.500244 383.477875,199.170044 
	C383.222076,205.462799 383.921112,211.791687 384.123932,218.107849 
	C384.169159,219.515121 384.585754,221.419174 382.591827,221.838470 
	C380.692902,222.237823 380.188965,220.431793 379.501984,219.147095 
	C377.383362,215.185242 375.295746,211.206802 373.006714,206.920105 
z"/>
<path fill="#000000" opacity="1.000000" stroke="none" 
	d="
M343.917969,324.214874 
	C322.230499,324.282806 303.343567,318.522461 288.763916,302.197235 
	C284.456329,297.373932 281.004791,291.978271 278.304596,285.253143 
	C284.851868,284.193817 290.621857,284.860779 296.340698,284.661102 
	C297.006042,284.637848 297.672882,284.658356 298.339050,284.658447 
	C308.033966,284.660065 308.033966,284.660065 311.344086,293.624329 
	C317.785919,311.069641 330.550018,320.006042 347.213898,318.737518 
	C354.866760,318.154907 356.811829,316.174133 356.942169,308.482208 
	C357.049377,302.155304 357.085785,295.823700 356.964447,289.497803 
	C356.894562,285.855347 358.360626,284.494019 362.026520,284.605835 
	C368.848297,284.813904 375.685822,284.816742 382.507263,284.602112 
	C386.301422,284.482727 387.443176,286.054413 387.326935,289.624939 
	C387.131958,295.614258 387.120605,301.618652 387.310669,307.607849 
	C387.415161,310.899628 386.120789,312.773773 383.224792,314.231750 
	C370.991119,320.390717 358.067871,323.714355 343.917969,324.214874 
z"/>
<path fill="#000000" opacity="1.000000" stroke="none" 
	d="
M255.400162,190.118256 
	C247.984680,192.866196 246.081055,198.205948 246.260284,205.272491 
	C246.555801,216.924057 246.204010,228.591034 246.412369,240.246384 
	C246.483246,244.210342 245.123138,245.535873 241.219650,245.398605 
	C234.399139,245.158737 227.557770,245.149826 220.737762,245.395248 
	C216.721710,245.539764 215.539047,243.923523 215.607849,240.120087 
	C215.783920,230.385193 215.666565,220.644989 214.683014,210.730515 
	C211.025696,220.833740 207.258896,230.899323 203.764877,241.058701 
	C202.362869,245.135178 200.093033,246.222565 196.301147,244.616898 
	C195.701935,242.514633 196.732880,240.884781 197.338455,239.196381 
	C202.844223,223.845886 208.479248,208.540665 213.835632,193.138443 
	C215.237381,189.107727 217.241364,187.376099 221.725662,187.533936 
	C231.540436,187.879379 241.377075,187.560547 251.201385,187.721146 
	C252.748520,187.746429 255.512344,186.329117 255.400162,190.118256 
z"/>
<path fill="#000000" opacity="1.000000" stroke="none" 
	d="
M116.083191,224.999603 
	C116.074127,217.342880 115.941093,210.183350 116.095566,203.030029 
	C116.208214,197.813599 114.585205,193.983856 109.317780,192.167572 
	C107.851959,191.662109 106.089951,191.057816 106.047585,188.975433 
	C106.838089,187.332474 108.319473,187.679230 109.567818,187.674698 
	C120.053474,187.636627 130.539810,187.706360 141.024796,187.613998 
	C143.669800,187.590698 145.347290,188.339462 146.347412,190.984970 
	C152.756744,207.938889 159.275146,224.851562 165.768326,241.773727 
	C166.134720,242.728622 166.441467,243.655045 165.589752,245.201080 
	C156.483902,245.201080 147.051605,245.263657 137.621140,245.159317 
	C135.102371,245.131470 134.666397,242.744431 133.967239,240.937759 
	C130.846558,232.873764 127.814102,224.775665 124.712349,216.704269 
	C124.013229,214.885010 123.164085,213.123398 122.154465,210.809097 
	C122.154465,221.038620 122.186119,230.582825 122.130882,240.126526 
	C122.118019,242.349030 122.687798,245.240768 119.043152,245.162613 
	C115.435875,245.085266 116.119812,242.170883 116.080948,239.979401 
	C115.995369,235.154282 116.071999,230.326279 116.083191,224.999603 
z"/>
<path fill="#000000" opacity="1.000000" stroke="none" 
	d="
M215.680664,288.158813 
	C215.657394,285.169922 217.240295,284.675385 219.312607,284.679474 
	C226.975693,284.694580 234.640015,284.754669 242.301407,284.637115 
	C245.347427,284.590363 246.430893,285.864380 246.354996,288.812714 
	C246.230728,293.640442 246.504349,298.480927 246.306320,303.303558 
	C246.052795,309.478333 247.297546,314.591461 254.023697,316.673553 
	C255.004654,316.977234 255.765045,317.652161 255.960068,320.043457 
	C239.380035,320.716583 222.866928,320.304810 206.488388,320.281708 
	C205.556290,316.840271 207.940567,316.604340 209.425507,316.002777 
	C213.939911,314.174042 215.572769,310.652100 215.623535,306.136719 
	C215.689087,300.306641 215.654831,294.475433 215.680664,288.158813 
z"/>
<path fill="#000000" opacity="1.000000" stroke="none" 
	d="
M158.771332,306.102295 
	C156.117661,299.110016 153.593887,292.481140 150.800491,285.144043 
	C163.307648,285.144043 174.943024,285.144043 186.468094,285.144043 
	C187.417618,286.409302 186.929398,287.484863 186.533493,288.580841 
	C183.206665,297.790802 179.723633,306.949432 176.652557,316.244110 
	C175.437958,319.920135 173.175873,320.492889 169.865875,320.430084 
	C166.549194,320.367126 163.660904,320.408844 162.582458,316.244354 
	C161.714279,312.891846 160.154266,309.718475 158.771332,306.102295 
z"/>
<path fill="#000000" opacity="1.000000" stroke="none" 
	d="
M131.496323,317.334930 
	C132.684921,318.715607 132.771347,320.055054 131.131851,320.114441 
	C122.803482,320.416168 114.452576,320.872467 106.231659,319.863831 
	C105.922615,317.111389 107.609734,316.873627 108.956520,316.401398 
	C113.830101,314.692596 115.999573,311.174072 116.008125,306.130829 
	C116.017128,300.818329 115.965828,295.502930 116.133812,290.194855 
	C116.205910,287.916504 115.365463,284.717529 119.386559,284.797516 
	C123.141685,284.872253 122.170708,287.875732 122.226776,289.978333 
	C122.359528,294.956177 122.246307,299.940125 122.280586,304.921265 
	C122.335655,312.922394 123.448029,314.418915 131.496323,317.334930 
z"/>
<path fill="#000000" opacity="1.000000" stroke="none" 
	d="
M366.650696,263.054443 
	C367.625641,258.292023 370.876465,259.707886 373.405609,260.170746 
	C376.191650,260.680603 377.319733,262.968689 376.245575,265.447266 
	C375.303070,267.622070 376.047424,269.560028 376.268066,271.790497 
	C373.152161,272.477692 373.054810,268.340881 370.471497,268.627472 
	C368.773254,268.923828 369.205200,271.212128 367.395325,271.931824 
	C365.856903,269.212982 366.872711,266.275635 366.650696,263.054443 
z"/>
<path fill="#000000" opacity="1.000000" stroke="none" 
	d="
M105.868500,266.483002 
	C104.775246,268.121246 105.980179,270.336914 103.541626,271.770813 
	C102.146690,267.876282 102.380798,264.232239 103.344765,260.593994 
	C106.209076,259.928497 106.573959,263.044464 108.735046,263.353302 
	C110.909645,263.367157 111.207207,259.791138 114.336105,260.398987 
	C115.607567,263.994598 115.445976,267.693695 114.138084,271.983551 
	C111.884193,270.254425 113.247154,267.901703 111.962433,266.011047 
	C110.172562,267.434906 108.143486,268.373718 105.868500,266.483002 
z"/>
<path fill="#000000" opacity="1.000000" stroke="none" 
	d="
M252.992767,268.042969 
	C254.605423,269.799652 256.117615,270.486206 257.854340,268.989044 
	C258.696198,267.138062 256.127747,267.742065 256.214233,266.481750 
	C256.558258,265.517334 257.463593,265.470947 258.243896,265.356171 
	C259.854584,265.119293 261.325317,265.499115 261.850220,267.208923 
	C262.286865,268.631378 262.604614,270.629364 261.309387,271.376923 
	C258.825500,272.810547 255.812317,272.924408 253.186890,271.842926 
	C250.710297,270.822754 249.482925,268.435211 249.858398,265.727417 
	C250.243622,262.949493 251.670120,260.651855 254.651352,260.024506 
	C257.441742,259.437347 259.842133,259.988800 261.075317,263.571411 
	C258.364105,263.838898 255.845001,261.065826 253.552536,263.649933 
	C252.422394,264.923828 252.165253,266.219208 252.992767,268.042969 
z"/>
<path fill="#000000" opacity="1.000000" stroke="none" 
	d="
M168.552429,268.988708 
	C171.828049,270.065094 171.828049,270.065094 174.464630,269.188995 
	C173.303329,266.139465 166.861053,267.260712 168.659775,262.083679 
	C169.199585,260.529999 170.695892,259.851624 172.266022,259.833160 
	C174.655548,259.804993 176.963989,260.117371 177.504425,263.134552 
	C176.012268,264.968872 174.333496,262.202881 172.657806,263.728790 
	C174.154251,265.986145 179.260544,265.554657 177.993942,269.960052 
	C177.461273,271.812775 175.826965,272.424591 174.048309,272.415985 
	C171.593384,272.404144 168.827484,272.809204 168.552429,268.988708 
z"/>
<path fill="#000000" opacity="1.000000" stroke="none" 
	d="
M220.704971,263.773865 
	C219.263977,262.816559 218.096893,262.352509 216.378891,263.569733 
	C218.239258,265.863708 223.554123,265.222260 222.415939,269.926056 
	C221.891418,272.093781 219.949631,272.530304 218.088470,272.595154 
	C215.714493,272.677856 213.421188,272.355499 212.818268,269.219452 
	C214.954803,267.845154 217.499634,272.185089 219.286362,268.628906 
	C218.014130,266.815491 215.519836,267.420441 214.100891,265.914734 
	C212.798950,264.533173 212.262085,263.073395 213.521576,261.487854 
	C215.086853,259.517303 217.201385,259.427582 219.403854,260.210327 
	C221.404892,260.921478 221.552734,261.323151 220.704971,263.773865 
z"/>
<path fill="#000000" opacity="1.000000" stroke="none" 
	d="
M129.047211,262.235565 
	C134.144272,258.796539 138.708710,259.795532 140.020248,264.365265 
	C140.809906,267.116547 140.318848,269.706390 137.740738,271.353424 
	C135.335922,272.889740 132.579178,273.084259 130.294662,271.378906 
	C127.188560,269.060303 126.970108,265.898956 129.047211,262.235565 
M135.752518,262.903229 
	C132.468262,262.072296 130.482620,263.185303 130.501083,266.724609 
	C130.509598,268.356873 131.685257,269.459686 133.233887,269.935211 
	C134.654587,270.371460 135.935196,269.856598 136.754288,268.690094 
	C138.053024,266.840485 138.041443,264.973694 135.752518,262.903229 
z"/>
<path fill="#000000" opacity="1.000000" stroke="none" 
	d="
M349.387634,260.812561 
	C351.358215,264.384430 353.189697,267.672333 354.077454,272.791626 
	C349.958374,269.131226 346.539673,268.339661 343.264832,272.463074 
	C342.985596,267.095551 345.756500,261.807983 349.387634,260.812561 
z"/>
<path fill="#000000" opacity="1.000000" stroke="none" 
	d="
M396.008545,261.128906 
	C397.495422,264.732941 399.691315,267.716400 400.079590,272.512451 
	C396.229828,268.756653 392.826477,268.364929 389.084961,272.720612 
	C389.253021,267.545776 391.305908,264.198761 393.236176,260.856628 
	C393.799774,259.880768 394.928436,260.016022 396.008545,261.128906 
z"/>
<path fill="#000000" opacity="1.000000" stroke="none" 
	d="
M190.717972,263.219818 
	C192.579742,257.197174 196.393158,260.651001 200.014282,259.919434 
	C198.675247,263.563812 195.517807,261.310516 194.264069,263.378235 
	C194.721283,266.029175 198.003494,263.986328 198.908203,266.186188 
	C198.356705,268.742401 194.603775,266.083771 194.066956,268.916260 
	C195.241745,270.950378 197.948929,269.349670 199.514160,271.352570 
	C197.178726,273.110077 194.275604,272.939606 192.319397,271.846802 
	C189.170578,270.087738 191.187057,266.461945 190.717972,263.219818 
z"/>
<path fill="#000000" opacity="1.000000" stroke="none" 
	d="
M298.656189,267.915100 
	C299.053467,264.965149 297.314514,261.634064 300.325775,260.241364 
	C302.481659,259.244263 305.383118,258.819641 307.574432,261.070770 
	C306.231079,263.353821 303.468597,261.434570 302.141388,263.407928 
	C302.381287,266.054443 306.070740,263.937103 306.434052,266.437378 
	C305.460205,268.264954 302.744843,266.446136 301.855743,268.596313 
	C302.797760,271.158020 306.053375,269.064789 307.190033,271.206116 
	C301.802002,273.580505 299.610168,272.853485 298.656189,267.915100 
z"/>
<path fill="#000000" opacity="1.000000" stroke="none" 
	d="
M320.335754,262.778961 
	C320.048004,259.686951 320.990143,259.573181 322.412537,261.638489 
	C323.500275,263.217896 324.261383,265.022308 325.269257,266.917450 
	C327.522461,264.931976 327.363098,261.661957 331.011292,259.840546 
	C330.093964,264.937592 328.572205,268.711090 325.956573,272.515686 
	C322.141907,270.107513 322.123322,266.123566 320.335754,262.778961 
z"/>
<path fill="#000000" opacity="1.000000" stroke="none" 
	d="
M282.665222,265.703003 
	C282.870636,263.746521 282.164093,261.961151 284.895752,259.960968 
	C285.261688,264.164368 286.513245,267.645447 283.731232,270.842712 
	C281.860107,272.993103 279.031708,273.127747 276.938904,271.593994 
	C272.969910,268.685181 274.931580,264.550049 275.090454,260.347076 
	C277.882233,261.852386 276.854523,264.073120 277.121155,265.825928 
	C277.376373,267.503693 277.442810,269.357544 279.562653,269.597839 
	C282.009460,269.875183 282.607758,268.149139 282.665222,265.703003 
z"/>
<path fill="#000000" opacity="1.000000" stroke="none" 
	d="
M154.755951,261.065063 
	C155.421814,264.798218 155.793274,268.221222 154.596390,271.720215 
	C151.930237,268.564606 151.948624,263.599457 154.755951,261.065063 
z"/>
</svg>